<svg xmlns="http://www.w3.org/2000/svg" viewBox="0 0 800 500" font-family="JetBrains Mono, monospace">
  <rect width="800" height="500" fill="#03101c"/>
  <rect x="0" y="0" width="800" height="46" fill="#061a2c"/>
  <circle cx="26" cy="23" r="6" fill="#ff5a6e"/><circle cx="48" cy="23" r="6" fill="#ffc46b"/><circle cx="70" cy="23" r="6" fill="#5dffa0"/>
  <text x="120" y="29" fill="#8fb4c9" font-size="14" letter-spacing="2">module-03.view</text>
  <rect x="20" y="70" width="220" height="400" fill="#05192b" stroke="#0d3b54"/>
  <rect x="40" y="96" width="180" height="14" fill="#0d3b54"/>
  <rect x="40" y="126" width="140" height="12" fill="#103b52"/>
  <rect x="40" y="150" width="160" height="12" fill="#103b52"/>
  <rect x="40" y="174" width="120" height="12" fill="#103b52"/>
  <rect x="260" y="70" width="520" height="150" fill="#05192b" stroke="#0d3b54"/>
  <polyline points="280,190 340,150 400,170 460,120 520,140 580,90 640,120 720,80" fill="none" stroke="#38e0ff" stroke-width="2"/>
  <rect x="260" y="236" width="250" height="234" fill="#05192b" stroke="#0d3b54"/>
  <circle cx="385" cy="350" r="78" fill="none" stroke="#38e0ff" stroke-width="10" stroke-dasharray="270 130"/>
  <circle cx="385" cy="350" r="78" fill="none" stroke="#ffc46b" stroke-width="10" stroke-dasharray="120 280" stroke-dashoffset="-270"/>
  <rect x="530" y="236" width="250" height="234" fill="#05192b" stroke="#0d3b54"/>
  <rect x="552" y="270" width="206" height="26" fill="#0a2740"/>
  <rect x="552" y="308" width="206" height="26" fill="#0a2740"/>
  <rect x="552" y="346" width="206" height="26" fill="#0a2740"/>
  <rect x="552" y="384" width="206" height="26" fill="#0a2740"/>
  <text x="780" y="494" text-anchor="end" fill="#2f5066" font-size="12">PLACEHOLDER · SCREENSHOT 03</text>
</svg>
